<svg width="64" height="64" viewBox="0 0 64 64" fill="none" xmlns="http://www.w3.org/2000/svg">
<g clip-path="url(#clip0_60_22987)">
<path d="M31.8446 63.6707C49.4216 63.6707 63.6706 49.4217 63.6706 31.8447C63.6706 14.2677 49.4216 0.0186768 31.8446 0.0186768C14.2675 0.0186768 0.0185547 14.2677 0.0185547 31.8447C0.0185547 49.4217 14.2675 63.6707 31.8446 63.6707Z" fill="#D42E25" stroke="white" stroke-width="5"/>
<path fill-rule="evenodd" clip-rule="evenodd" d="M20.1454 29.7814C19.0654 29.06 17.6227 29.224 16.7294 30.168C15.8374 31.1107 15.7534 32.5614 16.5334 33.6L24.5334 44.2667C25.0161 44.9094 25.7627 45.3014 26.5667 45.332C27.3694 45.3614 28.1441 45.028 28.6734 44.4227L47.3401 23.0893C48.2614 22.0373 48.212 20.452 47.228 19.4573C46.244 18.4627 44.6601 18.3987 43.5974 19.308L26.4654 33.9934L20.1454 29.7814Z" fill="#FAFAFA"/>
</g>
<defs>
<clipPath id="clip0_60_22987">
<rect width="64" height="64" fill="white"/>
</clipPath>
</defs>
</svg>
