<svg width="18" height="22" viewBox="0 0 18 22" fill="none" xmlns="http://www.w3.org/2000/svg">
<path d="M16 6C15.7348 6 15.4805 6.10536 15.2929 6.29289C15.1054 6.48043 15 6.73479 15 7V18.191C14.9713 18.6967 14.744 19.1706 14.3675 19.5094C13.991 19.8482 13.4959 20.0246 12.99 20H5.01001C4.50411 20.0246 4.00899 19.8482 3.63251 19.5094C3.25603 19.1706 3.02869 18.6967 3 18.191V7C3 6.73479 2.89465 6.48043 2.70711 6.29289C2.51957 6.10536 2.26522 6 2 6C1.73479 6 1.48043 6.10536 1.29289 6.29289C1.10536 6.48043 1 6.73479 1 7V18.191C1.02854 19.2273 1.46658 20.2099 2.21818 20.9239C2.96978 21.6378 3.97368 22.0248 5.01001 22H12.99C14.0264 22.0248 15.0303 21.6378 15.7819 20.9239C16.5335 20.2099 16.9715 19.2273 17 18.191V7C17 6.73479 16.8947 6.48043 16.7071 6.29289C16.5196 6.10536 16.2653 6 16 6Z" fill="#D73028"/>
<path d="M17 3.00001H13V1C13 0.734785 12.8947 0.480431 12.7071 0.292894C12.5196 0.105357 12.2652 0 12 0H6.00001C5.7348 0 5.48044 0.105357 5.29291 0.292894C5.10537 0.480431 5.00001 0.734785 5.00001 1V3.00001H1C0.734785 3.00001 0.480431 3.10536 0.292894 3.2929C0.105357 3.48044 0 3.73479 0 4.00001C0 4.26523 0.105357 4.51958 0.292894 4.70712C0.480431 4.89466 0.734785 5.00001 1 5.00001H17C17.2653 5.00001 17.5196 4.89466 17.7071 4.70712C17.8947 4.51958 18 4.26523 18 4.00001C18 3.73479 17.8947 3.48044 17.7071 3.2929C17.5196 3.10536 17.2653 3.00001 17 3.00001ZM7.00002 3.00001V2.00001H11V3.00001H7.00002Z" fill="#D73028"/>
<path d="M8 16.0001V9.00006C8 8.73485 7.89465 8.48049 7.70711 8.29296C7.51957 8.10542 7.26522 8.00006 7 8.00006C6.73479 8.00006 6.48043 8.10542 6.29289 8.29296C6.10536 8.48049 6 8.73485 6 9.00006V16.0001C6 16.2653 6.10536 16.5197 6.29289 16.7072C6.48043 16.8947 6.73479 17.0001 7 17.0001C7.26522 17.0001 7.51957 16.8947 7.70711 16.7072C7.89465 16.5197 8 16.2653 8 16.0001Z" fill="#D73028"/>
<path d="M12 16.0001V9.00006C12 8.73485 11.8946 8.48049 11.7071 8.29296C11.5196 8.10542 11.2652 8.00006 11 8.00006C10.7348 8.00006 10.4804 8.10542 10.2929 8.29296C10.1054 8.48049 10 8.73485 10 9.00006V16.0001C10 16.2653 10.1054 16.5197 10.2929 16.7072C10.4804 16.8947 10.7348 17.0001 11 17.0001C11.2652 17.0001 11.5196 16.8947 11.7071 16.7072C11.8946 16.5197 12 16.2653 12 16.0001Z" fill="#D73028"/>
</svg>
