<svg width="32" height="32" viewBox="0 0 32 32" fill="none" xmlns="http://www.w3.org/2000/svg">
<path d="M23.4375 28H8.5625C4.94394 28 2 24.9353 2 21.1683V11.8317C2 8.06469 4.94394 5 8.5625 5H23.4375C27.0561 5 30 8.06469 30 11.8317V21.1683C30 24.9353 27.0561 28 23.4375 28ZM8.5625 7.27723C6.15013 7.27723 4.1875 9.32036 4.1875 11.8317V21.1683C4.1875 23.6796 6.15013 25.7228 8.5625 25.7228H23.4375C25.8499 25.7228 27.8125 23.6796 27.8125 21.1683V11.8317C27.8125 9.32036 25.8499 7.27723 23.4375 7.27723H8.5625ZM20.0078 18.5157L25.414 14.2167C25.894 13.835 25.9859 13.1205 25.6192 12.6207C25.2525 12.121 24.5661 12.0254 24.0861 12.4071L18.6806 16.7055C17.1198 17.9448 14.94 17.9458 13.3781 16.7087L8.14009 12.4699C7.66316 12.0839 6.97596 12.1736 6.60529 12.67C6.23456 13.1665 6.32064 13.8819 6.79757 14.2678L12.0396 18.5098C12.0423 18.512 12.0449 18.5141 12.0476 18.5162C13.2192 19.4464 14.6231 19.9115 16.0272 19.9115C17.4314 19.9115 18.8358 19.4462 20.0078 18.5157Z" fill="#9D9D9D"/>
</svg>
