<svg width="32" height="32" viewBox="0 0 32 32" fill="none" xmlns="http://www.w3.org/2000/svg">
<path fill-rule="evenodd" clip-rule="evenodd" d="M24.103 12.1386C24.7706 11.7516 25.6257 11.9791 26.0127 12.6466L28.6795 17.2464C29.0665 17.9141 28.8391 18.7692 28.1715 19.1563C27.5038 19.5434 26.6488 19.3159 26.2617 18.6482L23.595 14.0484C23.2079 13.3808 23.4353 12.5257 24.103 12.1386Z" fill="#9A9A9A"/>
<path fill-rule="evenodd" clip-rule="evenodd" d="M19.1005 14.5334C19.8606 14.3995 20.5853 14.9071 20.7191 15.6671L21.5459 20.3601C21.6798 21.1202 21.1723 21.8449 20.4122 21.9787C19.6522 22.1127 18.9274 21.6051 18.7935 20.845L17.9667 16.152C17.8329 15.392 18.3404 14.6673 19.1005 14.5334Z" fill="#9A9A9A"/>
<path fill-rule="evenodd" clip-rule="evenodd" d="M13.4712 14.5219C14.2313 14.6555 14.7392 15.38 14.6056 16.1401L13.7788 20.8447C13.6452 21.6048 12.9207 22.1127 12.1606 21.9791C11.4005 21.8455 10.8926 21.1211 11.0262 20.3609L11.853 15.6563C11.9866 14.8963 12.7111 14.3883 13.4712 14.5219Z" fill="#9A9A9A"/>
<path fill-rule="evenodd" clip-rule="evenodd" d="M8.46569 12.1371C9.13421 12.5228 9.36354 13.3773 8.97792 14.0459L6.31122 18.6689C5.9256 19.3374 5.07106 19.5667 4.40254 19.1811C3.73401 18.7955 3.50468 17.941 3.8903 17.2724L6.557 12.6494C6.94262 11.9809 7.79717 11.7515 8.46569 12.1371Z" fill="#9A9A9A"/>
<path fill-rule="evenodd" clip-rule="evenodd" d="M4.23425 9.65219C4.83464 9.1672 5.71446 9.26082 6.19939 9.86124C8.00138 12.0922 11.2271 14.8267 16.2915 14.8267C21.3559 14.8267 24.5816 12.0922 26.3835 9.86124C26.8685 9.26082 27.7483 9.1672 28.3488 9.65219C28.9491 10.1371 29.0427 11.0169 28.5578 11.6173C26.4471 14.2305 22.4994 17.6215 16.2915 17.6215C10.0835 17.6215 6.13593 14.2305 4.02519 11.6173C3.54027 11.0169 3.63387 10.1371 4.23425 9.65219Z" fill="#9A9A9A"/>
</svg>
