<svg width="32" height="32" viewBox="0 0 32 32" fill="none" xmlns="http://www.w3.org/2000/svg">
<path d="M7 16.5001C7 16.9205 7.2907 17.2679 7.66787 17.3229L7.77273 17.3304L21.3562 17.3298L16.4489 22.5813C16.1465 22.9049 16.1455 23.4306 16.4466 23.7555C16.7203 24.051 17.1495 24.0787 17.4525 23.8383L17.5394 23.7581L23.7727 17.0889C23.8126 17.0463 23.8472 17.0001 23.8766 16.9514C23.8849 16.9367 23.8933 16.9217 23.9013 16.9064C23.9087 16.8933 23.9154 16.8796 23.9216 16.8659C23.9304 16.8458 23.9389 16.8251 23.9466 16.804C23.9529 16.7877 23.9582 16.7718 23.963 16.7558C23.9686 16.736 23.9742 16.7149 23.9789 16.6935C23.9825 16.6785 23.9853 16.6641 23.9877 16.6497C23.9912 16.6282 23.9941 16.6059 23.9962 16.5834C23.998 16.5662 23.9991 16.5492 23.9996 16.5321C23.9998 16.5218 24 16.511 24 16.5001L23.9996 16.4679C23.999 16.4516 23.998 16.4354 23.9965 16.4191L24 16.5001C24 16.4477 23.9955 16.3964 23.9868 16.3467C23.9848 16.3349 23.9825 16.3227 23.9798 16.3106C23.9743 16.2856 23.968 16.2615 23.9607 16.2379C23.9571 16.2262 23.9529 16.2136 23.9485 16.2012C23.9394 16.1762 23.9296 16.1524 23.9188 16.1292C23.9138 16.1183 23.9082 16.1069 23.9023 16.0956C23.8926 16.0771 23.8827 16.0596 23.8722 16.0425C23.8647 16.0304 23.8565 16.0178 23.8479 16.0055L23.8413 15.9959C23.8204 15.9667 23.7979 15.939 23.7737 15.913L23.7727 15.9122L17.5394 9.24198C17.237 8.91839 16.7478 8.91948 16.4466 9.24441C16.1728 9.5398 16.1488 10.0011 16.3739 10.3257L16.4489 10.4187L21.3542 15.6691L7.77273 15.6698C7.34596 15.6698 7 16.0415 7 16.5001Z" fill="#5A5A5A"/>
</svg>
