<svg width="22" height="22" viewBox="0 0 22 22" fill="none" xmlns="http://www.w3.org/2000/svg">
<g clip-path="url(#clip0_60_21925)">
<path d="M20.4188 14.3172C19.8859 14.0594 19.2414 14.2871 18.9836 14.8199C18.2703 16.3023 17.1617 17.557 15.7738 18.4508C14.3516 19.366 12.7016 19.8516 11 19.8516C6.11875 19.8516 2.14844 15.8813 2.14844 11C2.14844 6.11875 6.11875 2.14844 11 2.14844C12.7016 2.14844 14.3516 2.63398 15.7781 3.54492C17.166 4.43437 18.2746 5.69336 18.9879 7.17578C19.2457 7.70859 19.8859 7.93633 20.423 7.67852C20.9559 7.4207 21.1836 6.78047 20.9258 6.24336C20.0406 4.4 18.6656 2.84023 16.9383 1.73594C15.168 0.601563 13.1141 0 11 0C8.06094 0 5.29805 1.14297 3.22266 3.22266C1.14297 5.29805 0 8.06094 0 11C0 13.9391 1.14297 16.702 3.22266 18.7773C5.30234 20.857 8.06094 22 11 22C13.1141 22 15.168 21.3984 16.9383 20.2598C18.6613 19.1512 20.0406 17.5914 20.9258 15.7523C21.1793 15.2152 20.9559 14.575 20.4188 14.3172Z" fill="white"/>
<path d="M11.5716 15.1809C11.7821 15.3915 12.0571 15.4946 12.3321 15.4946C12.6071 15.4946 12.8821 15.3915 13.0927 15.1809L15.7954 12.4782C16.1907 12.0829 16.4056 11.5586 16.4056 11.0043C16.4056 10.45 16.1864 9.92153 15.7954 9.53052L13.0927 6.82778C12.6716 6.40669 11.9927 6.40669 11.5716 6.82778C11.1505 7.24888 11.1505 7.92778 11.5716 8.34888L13.1571 9.93442H7.05127C6.4583 9.93442 5.97705 10.4157 5.97705 11.0086C5.97705 11.6016 6.4583 12.0829 7.05127 12.0829H13.1614L11.5759 13.6684C11.1548 14.0809 11.1548 14.7598 11.5716 15.1809Z" fill="white"/>
</g>
<defs>
<clipPath id="clip0_60_21925">
<rect width="22" height="22" fill="white"/>
</clipPath>
</defs>
</svg>
