<svg width="32" height="32" viewBox="0 0 32 32" fill="none" xmlns="http://www.w3.org/2000/svg">
<path d="M15.7528 3C11.6891 3 8.43819 6.25092 8.43819 10.3146V13.5655C7.05655 13.5655 6 14.622 6 16.0037V26.5692C6 27.9508 7.05655 29.0074 8.43819 29.0074H23.0673C24.449 29.0074 25.5055 27.9508 25.5055 26.5692V16.0037C25.5055 14.622 24.449 13.5655 23.0673 13.5655V10.3146C23.0673 6.25092 19.8164 3 15.7528 3ZM23.8801 16.0037V26.5692C23.8801 27.0568 23.555 27.3819 23.0673 27.3819H8.43819C7.95055 27.3819 7.62546 27.0568 7.62546 26.5692V16.0037C7.62546 15.516 7.95055 15.1909 8.43819 15.1909H23.0673C23.555 15.1909 23.8801 15.516 23.8801 16.0037ZM10.0636 13.5655V10.3146C10.0636 7.14492 12.5831 4.62546 15.7528 4.62546C18.9224 4.62546 21.4419 7.14492 21.4419 10.3146V13.5655H10.0636Z" fill="#9D9D9D"/>
<path d="M15.7517 17.6304C14.37 17.6304 13.3135 18.6869 13.3135 20.0686C13.3135 21.1251 13.9637 22.0191 14.9389 22.3442V24.1322C14.9389 24.6198 15.264 24.9449 15.7517 24.9449C16.2393 24.9449 16.5644 24.6198 16.5644 24.1322V22.3442C17.5397 22.0191 18.1899 21.1251 18.1899 20.0686C18.1899 18.6869 17.1333 17.6304 15.7517 17.6304ZM15.7517 20.8813C15.264 20.8813 14.9389 20.5562 14.9389 20.0686C14.9389 19.5809 15.264 19.2558 15.7517 19.2558C16.2393 19.2558 16.5644 19.5809 16.5644 20.0686C16.5644 20.5562 16.2393 20.8813 15.7517 20.8813Z" fill="#9D9D9D"/>
</svg>
