<svg width="26" height="26" viewBox="0 0 26 26" fill="none" xmlns="http://www.w3.org/2000/svg">
<path d="M11.5856 0C5.2009 0 0 5.20089 0 11.5856C0 17.9703 5.2009 23.1813 11.5856 23.1813C14.3127 23.1813 16.8207 22.2256 18.803 20.6388L23.6288 25.4621C23.8724 25.6956 24.1977 25.8244 24.535 25.8209C24.8723 25.8175 25.1949 25.6821 25.4336 25.4437C25.6723 25.2053 25.8082 24.883 25.8121 24.5457C25.816 24.2083 25.6877 23.8829 25.4546 23.639L20.6287 18.8132C22.2168 16.8279 23.1737 14.3158 23.1737 11.5856C23.1737 5.20089 17.9703 0 11.5856 0ZM11.5856 2.57517C16.5786 2.57517 20.596 6.59263 20.596 11.5856C20.596 16.5786 16.5786 20.6061 11.5856 20.6061C6.59261 20.6061 2.57513 16.5786 2.57513 11.5856C2.57513 6.59263 6.59261 2.57517 11.5856 2.57517Z" fill="#9D9D9D"/>
</svg>
