<svg width="26" height="24" viewBox="0 0 26 24" fill="none" xmlns="http://www.w3.org/2000/svg">
<path d="M22.8069 0.364977L2.16936 6.75935C1.78707 6.86083 1.44776 7.08302 1.20193 7.39288C0.956104 7.70274 0.816896 8.08369 0.805027 8.47904C0.793157 8.87439 0.90926 9.26301 1.13606 9.58705C1.36285 9.9111 1.68822 10.1533 2.06373 10.2775L11.4237 13.4137C11.4578 13.4267 11.4891 13.4463 11.5156 13.4714C11.5421 13.4965 11.5633 13.5266 11.5781 13.56L15.0231 22.4975C15.1625 22.8565 15.4086 23.1643 15.7281 23.3792C16.0477 23.5942 16.4255 23.7062 16.8106 23.7H16.8594C17.2509 23.6988 17.6322 23.574 17.9487 23.3435C18.2653 23.113 18.5011 22.7885 18.6225 22.4162L25.1875 2.70498C25.2904 2.38939 25.3055 2.05173 25.231 1.72823C25.1566 1.40473 24.9955 1.1076 24.765 0.868727C24.5185 0.609892 24.2042 0.425453 23.8581 0.336396C23.5119 0.247339 23.1477 0.257242 22.8069 0.364977Z" fill="#D52F27"/>
</svg>
