<svg width="27" height="29" viewBox="0 0 27 29" fill="none" xmlns="http://www.w3.org/2000/svg">
<path fill-rule="evenodd" clip-rule="evenodd" d="M25.8998 17.1348C24.9684 16.5931 24.39 15.584 24.39 14.5001C24.39 13.4167 24.9684 12.4075 25.8971 11.8664C26.8502 11.3132 27.2466 10.1638 26.8393 9.13354C26.3288 7.83218 25.6337 6.61669 24.7783 5.52037C24.0968 4.64749 22.9129 4.41889 21.9598 4.97565C21.0312 5.52037 19.8744 5.522 18.943 4.97975C18.0143 4.43749 17.4387 3.42674 17.4414 2.34088C17.4414 1.23005 16.6539 0.308155 15.5651 0.149163C14.1965 -0.0509509 12.8063 -0.0498394 11.4323 0.153258C10.3461 0.313361 9.55868 1.23473 9.56135 2.34334C9.56135 3.42785 8.98564 4.43802 8.05702 4.97975C7.12561 5.52142 5.97159 5.52031 5.04025 4.97618C4.08717 4.41942 2.90326 4.64913 2.22169 5.522C1.79809 6.0659 1.40704 6.64735 1.06223 7.25126C0.717365 7.85411 0.415955 8.48599 0.160723 9.12827C-0.249327 10.1601 0.147165 11.3112 1.10024 11.8658C2.03165 12.407 2.61002 13.4166 2.61002 14.5C2.61002 15.5834 2.03165 16.5922 1.10296 17.1342C0.149888 17.6874 -0.246546 18.8363 0.160723 19.8662C0.671244 21.1684 1.36637 22.3839 2.22169 23.4796C2.90326 24.3525 4.08717 24.5811 5.04025 24.0243C5.96893 23.4796 7.12567 23.4785 8.05702 24.0203C8.98564 24.5625 9.56135 25.5733 9.56135 26.6591C9.55862 27.7697 10.3488 28.6916 11.4349 28.8509C12.1165 28.9504 12.8008 29 13.485 29C14.1802 29 14.8753 28.949 15.5677 28.8467C16.6539 28.6863 17.4413 27.7658 17.4413 26.6572C17.4386 25.5721 18.0142 24.5619 18.9429 24.0203C19.8743 23.4786 21.0283 23.4797 21.9597 24.0238C22.9128 24.5806 24.0967 24.3514 24.7782 23.478C25.2018 22.9338 25.5929 22.3524 25.9377 21.7493C26.2798 21.1465 26.5867 20.5145 26.8392 19.8717C27.2494 18.8399 26.8529 17.6885 25.8998 17.1348ZM17.1943 16.6539C16.6268 17.6502 15.7062 18.3632 14.6039 18.6609C13.5041 18.9586 12.3528 18.8059 11.3671 18.2302C9.33057 17.0426 8.63 14.4035 9.80574 12.3461C10.5932 10.9661 12.0324 10.1936 13.5068 10.1936C14.2318 10.1936 14.9623 10.3789 15.633 10.7698C17.6695 11.9571 18.37 14.597 17.1943 16.6539Z" fill="#D52F26"/>
</svg>
