<svg width="49" height="48" viewBox="0 0 49 48" fill="none" xmlns="http://www.w3.org/2000/svg">
<circle cx="24.5" cy="24" r="24" fill="#23A26D" fill-opacity="0.12"/>
<path d="M24.8338 12.8896C18.7115 12.8896 13.7227 17.8785 13.7227 24.0008C13.7227 30.123 18.7115 35.1119 24.8338 35.1119C30.956 35.1119 35.9449 30.123 35.9449 24.0008C35.9449 17.8785 30.956 12.8896 24.8338 12.8896ZM30.1449 21.4452L23.8449 27.7452C23.6893 27.9008 23.4782 27.9896 23.256 27.9896C23.0338 27.9896 22.8227 27.9008 22.6671 27.7452L19.5227 24.6008C19.2004 24.2785 19.2004 23.7452 19.5227 23.423C19.8449 23.1008 20.3782 23.1008 20.7004 23.423L23.256 25.9785L28.9671 20.2674C29.2893 19.9452 29.8227 19.9452 30.1449 20.2674C30.4671 20.5896 30.4671 21.1119 30.1449 21.4452Z" fill="#23A26D"/>
</svg>
