<svg width="35" height="35" viewBox="0 0 35 35" fill="none" xmlns="http://www.w3.org/2000/svg">
<path fill-rule="evenodd" clip-rule="evenodd" d="M27.4167 8.45833H26.0056L24.5117 5.845C23.9916 4.93704 23.0258 4.37631 21.9794 4.375H13.0206C11.9742 4.37631 11.0084 4.93704 10.4883 5.845L8.99442 8.45833H8.75V6.70833C8.75 6.38619 8.48881 6.125 8.16667 6.125H3.5C3.17785 6.125 2.91667 6.38619 2.91667 6.70833V8.45833C1.30667 8.46023 0.00189583 9.765 0 11.375V27.7083C0.00189583 29.3183 1.30667 30.6231 2.91667 30.625H32.0833C33.6933 30.6231 34.9981 29.3183 35 27.7083V11.375C34.9981 9.765 33.6933 8.46023 32.0833 8.45833H30.9167H28.5833H27.4167ZM7.58333 7.29167H4.08333V8.45833H7.58333V7.29167ZM32.0833 29.4583C33.0498 29.4583 33.8333 28.6748 33.8333 27.7083V11.375C33.8333 10.4085 33.0498 9.625 32.0833 9.625H25.6667C25.4578 9.62544 25.2647 9.51417 25.1603 9.33333L23.4961 6.42367C23.1843 5.88 22.6062 5.54378 21.9794 5.54167H13.0206C12.3923 5.5432 11.8127 5.88051 11.501 6.426L9.83967 9.33333C9.73525 9.51417 9.54217 9.62544 9.33333 9.625H2.91667C1.95016 9.625 1.16667 10.4085 1.16667 11.375V27.7083C1.16667 28.6748 1.95016 29.4583 2.91667 29.4583H32.0833Z" fill="white"/>
<path d="M25.3401 20.7446C25.3396 20.7444 25.3391 20.7443 25.3386 20.744C25.0377 20.6291 24.7006 20.7798 24.5855 21.0806C23.0857 24.991 18.6998 26.9452 14.7895 25.4453C12.1591 24.4365 10.3048 22.0525 9.9742 19.2548L11.3981 20.6787C11.622 20.9104 11.9912 20.9169 12.223 20.693C12.4547 20.4692 12.4611 20.0999 12.2372 19.8682C12.2326 19.8633 12.2278 19.8585 12.223 19.8539L9.74787 17.3788C9.52008 17.1511 9.15083 17.1511 8.92304 17.3788L6.44504 19.8539C6.22118 20.0856 6.2276 20.4549 6.45933 20.6787C6.68537 20.8971 7.04383 20.8971 7.26987 20.6787L8.78654 19.162C9.2228 23.9748 13.4779 27.5227 18.2907 27.0864C21.6159 26.785 24.4796 24.6177 25.6729 21.4994C25.7894 21.1991 25.6404 20.8612 25.3401 20.7446Z" fill="white"/>
<path d="M27.742 16.0564C27.7371 16.061 27.7323 16.0658 27.7277 16.0707L26.211 17.5873C25.7757 12.7745 21.5212 9.22582 16.7084 9.66113C13.3692 9.96315 10.4962 12.1467 9.31126 15.2832C9.19736 15.5845 9.34939 15.9212 9.65076 16.0351C9.95212 16.149 10.2888 15.9969 10.4027 15.6956C11.8859 11.7788 16.2634 9.80602 20.1801 11.2891C22.8277 12.2917 24.6964 14.6857 25.0263 17.4975L23.6023 16.0707C23.3786 15.8389 23.0092 15.8325 22.7775 16.0564C22.5458 16.2801 22.5394 16.6495 22.7632 16.8812C22.7679 16.8861 22.7727 16.8908 22.7775 16.8955L25.2526 19.3706C25.4804 19.5983 25.8496 19.5983 26.0774 19.3706L28.5525 16.8955C28.7842 16.6717 28.7906 16.3024 28.5668 16.0707C28.343 15.8389 27.9737 15.8325 27.742 16.0564Z" fill="white"/>
</svg>
