<svg width="22" height="24" viewBox="0 0 22 24" fill="none" xmlns="http://www.w3.org/2000/svg">
<path d="M17.3375 12.3819C15.8344 14.2181 13.5512 15.3963 11 15.3963C8.44874 15.3963 6.16561 14.2181 4.66249 12.3819C2.18436 14.2913 0.58374 17.2813 0.58374 20.645V20.9375C0.58374 22.2781 1.68061 23.375 3.02124 23.375H18.9787C20.3194 23.375 21.4162 22.2781 21.4162 20.9375V20.645C21.4162 17.2813 19.8156 14.2913 17.3375 12.3819Z" fill="#D42F26"/>
<path d="M11 13.7729C14.6306 13.7729 17.5739 10.8296 17.5739 7.19894C17.5739 3.56825 14.6306 0.625 11 0.625C7.36928 0.625 4.42603 3.56825 4.42603 7.19894C4.42603 10.8296 7.36928 13.7729 11 13.7729Z" fill="#D42F26"/>
</svg>
