<svg width="32" height="32" viewBox="0 0 32 32" fill="none" xmlns="http://www.w3.org/2000/svg">
<path fill-rule="evenodd" clip-rule="evenodd" d="M24.1845 17.965C24.8591 18.3561 25.7231 18.1262 26.1142 17.4517L28.8088 12.8038C29.2 12.1291 28.9702 11.265 28.2955 10.8739C27.6209 10.4828 26.7569 10.7126 26.3658 11.3873L23.6712 16.0352C23.28 16.7099 23.5098 17.5738 24.1845 17.965Z" fill="#D73028"/>
<path fill-rule="evenodd" clip-rule="evenodd" d="M19.1292 15.5454C19.8972 15.6806 20.6295 15.1677 20.7648 14.3998L21.6002 9.65772C21.7355 8.88968 21.2226 8.1574 20.4546 8.02213C19.6866 7.88676 18.9543 8.3997 18.819 9.16775L17.9836 13.9098C17.8483 14.6777 18.3611 15.41 19.1292 15.5454Z" fill="#D73028"/>
<path fill-rule="evenodd" clip-rule="evenodd" d="M13.4413 15.5568C14.2094 15.4218 14.7226 14.6897 14.5876 13.9217L13.7522 9.1679C13.6172 8.39985 12.8851 7.88663 12.117 8.02162C11.349 8.15661 10.8358 8.8886 10.9708 9.65674L11.8062 14.4105C11.9412 15.1786 12.6733 15.6918 13.4413 15.5568Z" fill="#D73028"/>
<path fill-rule="evenodd" clip-rule="evenodd" d="M8.38369 17.9665C9.0592 17.5768 9.29093 16.7133 8.90128 16.0378L6.20667 11.3664C5.81702 10.6909 4.95353 10.4592 4.27802 10.8488C3.6025 11.2384 3.37077 12.1019 3.76042 12.7775L6.45503 17.4489C6.84468 18.1244 7.70817 18.3562 8.38369 17.9665Z" fill="#D73028"/>
<path fill-rule="evenodd" clip-rule="evenodd" d="M4.10785 20.4775C4.71452 20.9676 5.60355 20.873 6.09355 20.2663C7.9144 18.0119 11.1738 15.2489 16.2913 15.2489C21.4086 15.2489 24.6681 18.0119 26.4889 20.2663C26.979 20.873 27.868 20.9676 28.4747 20.4775C29.0813 19.9875 29.1759 19.0985 28.6859 18.4918C26.5531 15.8512 22.5641 12.4248 16.2913 12.4248C10.0183 12.4248 6.02943 15.8512 3.89661 18.4918C3.40661 19.0985 3.50118 19.9875 4.10785 20.4775Z" fill="#D73028"/>
<circle cx="15.8939" cy="18.9539" r="5.47693" fill="#D73028"/>
<circle cx="15.8947" cy="18.9539" r="2.73846" fill="white"/>
</svg>
